HIERARCHY
ROOT Hips
{
  OFFSET 57.8838 95.319 338.509
  CHANNELS 6 Xposition Yposition Zposition Zrotation Xrotation Yrotation
  JOINT LeftUpLeg
  {
    OFFSET 8.64259 1.95398 -2.38835
    CHANNELS 3 Zrotation Xrotation Yrotation
    JOINT LeftLeg
    {
      OFFSET 43.7702 0 0
      CHANNELS 3 Zrotation Xrotation Yrotation
      JOINT LeftFoot
      {
        OFFSET 40.6238 0 0
        CHANNELS 3 Zrotation Xrotation Yrotation
        JOINT LeftToeBase
        {
          OFFSET 12.7242 0 0
          CHANNELS 3 Zrotation Xrotation Yrotation
          End Site
          {
            OFFSET 0 0 0
          }
        }
      }
    }
  }
  JOINT RightUpLeg
  {
    OFFSET -8.2249 1.95398 -2.59336
    CHANNELS 3 Zrotation Xrotation Yrotation
    JOINT RightLeg
    {
      OFFSET 43.5653 0 0
      CHANNELS 3 Zrotation Xrotation Yrotation
      JOINT RightFoot
      {
        OFFSET 40.6238 0 0
        CHANNELS 3 Zrotation Xrotation Yrotation
        JOINT RightToeBase
        {
          OFFSET 12.7242 0 0
          CHANNELS 3 Zrotation Xrotation Yrotation
          End Site
          {
            OFFSET 0 0 0
          }
        }
      }
    }
  }
  JOINT Spine
  {
    OFFSET 0.165834 0.87714 6.61349
    CHANNELS 3 Zrotation Xrotation Yrotation
    JOINT Spine1
    {
      OFFSET 7.38963 1.71661e-005 0
      CHANNELS 3 Zrotation Xrotation Yrotation
      JOINT Spine2
      {
        OFFSET 11.9445 1.14441e-005 0
        CHANNELS 3 Zrotation Xrotation Yrotation
        JOINT Spine3
        {
          OFFSET 14.7254 4.19617e-005 0
          CHANNELS 3 Zrotation Xrotation Yrotation
          JOINT Spine4
          {
            OFFSET 10.9679 0 0
            CHANNELS 3 Zrotation Xrotation Yrotation
            JOINT RightShoulder
            {
              OFFSET 2.46616 -1.6653 3.69651
              CHANNELS 3 Zrotation Xrotation Yrotation
              JOINT RightArm
              {
                OFFSET 13.0012 0 0
                CHANNELS 3 Zrotation Xrotation Yrotation
                JOINT RightForeArm
                {
                  OFFSET 28.7848 1.62311e-005 0
                  CHANNELS 3 Zrotation Xrotation Yrotation
                  JOINT RightHand
                  {
                    OFFSET 26.5688 1.62095e-005 0
                    CHANNELS 3 Zrotation Xrotation Yrotation
                    End Site
                    {
                      OFFSET 0 0 0
                    }
                  }
                }
              }
            }
            JOINT LeftShoulder
            {
              OFFSET 2.38034 -1.29275 -3.7523
              CHANNELS 3 Zrotation Xrotation Yrotation
              JOINT LeftArm
              {
                OFFSET 16.3182 6.07031e-005 0
                CHANNELS 3 Zrotation Xrotation Yrotation
                JOINT LeftForeArm
                {
                  OFFSET 27.0901 0 0
                  CHANNELS 3 Zrotation Xrotation Yrotation
                  JOINT LeftHand
                  {
                    OFFSET 24.5451 1.51738e-005 0
                    CHANNELS 3 Zrotation Xrotation Yrotation
                    End Site
                    {
                      OFFSET 0 0 0
                    }
                  }
                }
              }
            }
            JOINT Neck
            {
              OFFSET 5.0226 -0.0266342 0
              CHANNELS 3 Zrotation Xrotation Yrotation
              JOINT Head
              {
                OFFSET 6.69364 2.86102e-005 0
                CHANNELS 3 Zrotation Xrotation Yrotation
                End Site
                {
                  OFFSET 0 0 0
                }
              }
            }
          }
        }
      }
    }
  }
}
MOTION
Frames:	18
Frame Time:	0.0416667
5.53486 49.7777 20.3006 3.1809 -39.7371 5.86883 -144.445 61.4644 70.5587 -114.98 -0.478273 6.52021 69.2316 6.63195 -8.48397 76.2841 26.2177 14.534 162.632 53.3064 78.6152 -103.286 -21.6914 -0.492202 88.931 -24.5286 18.9337 47.0623 -33.7368 -19.6033 1.33153 10.7124 -89.5822 5.43844 2.83412 0.75727 -6.2296 2.86471 0.6317 -28.783 2.47545 1.57445 -8.77033 2.47546 1.57445 101.033 3.35926 -87.4229 -24.1314 19.4156 -50.5908 1.59993 -21.8054 -11.0602 -22.4501 -1.34022 1.65925 -81.2954 -29.792 90.1674 -33.2739 6.54363 -93.6334 -0.465547 54.2912 0.0626909 46.7115 2.71283 1.71643 12.5705 -8.51558 29.9849 17.9665 -20.9368 -29.5497 
4.03553 48.7402 29.4544 6.96766 -36.91 9.83215 -159.846 56.9523 86.337 -107.481 4.30303 5.38898 67.3971 4.15935 -10.1263 73.8839 25.173 15.4275 159.574 42.8457 82.9616 -92.6343 -19.0306 1.11366 88.1062 -24.5063 18.2501 46.3764 -33.1958 -20.7246 1.36251 10.5475 -89.6259 5.76904 2.87877 0.658664 -5.89884 2.90497 0.53122 -28.4537 2.54767 1.49388 -8.44102 2.54767 1.49387 100.811 2.98851 -88.1752 -26.4559 16.341 -48.3801 4.21118 -26.6431 -6.19242 -25.5297 -1.98769 3.84967 -84.6863 -40.4933 85.4091 -31.179 3.85325 -86.3089 -3.28777 67.0325 -0.0126145 45.9395 3.02419 2.50407 23.0948 -6.29851 36.9991 7.47568 -21.7743 -36.3525 
2.1448 46.2157 38.6722 11.5086 -34.8315 11.9939 -168.971 49.4365 94.7883 -98.989 9.93793 4.50479 63.9661 0.913096 -10.4197 75.1667 24.8845 13.0624 158.828 32.145 83.1568 -81.8711 -16.5984 2.94739 87.0731 -22.596 19.0609 46.7874 -33.4929 -20.004 1.2754 10.4725 -89.354 5.91288 2.81925 1.19021 -5.75544 2.86891 1.06488 -28.3044 2.33122 1.98275 -8.29176 2.33123 1.98271 100.709 1.3772 -87.7164 -30.6639 5.88631 -45.2744 6.80166 -26.5049 -5.43375 -31.7117 -3.32822 6.67221 -86.8301 -50.3997 83.5277 -28.492 -0.231429 -79.1474 -6.72789 76.7669 1.04211 47.0317 2.8644 1.98026 28.0473 -6.67596 36.5659 3.80976 -22.2819 -36.3194 
-0.265475 42.0087 47.2029 14.7826 -30.1829 12.3263 -171.307 44.8909 98.7634 -91.0672 15.641 3.6559 61.3986 -1.59935 -10.6585 69.4656 23.4248 17.72 158.442 23.9161 83.7034 -70.1716 -13.4641 4.988 87.8285 -22.8624 20.0061 48.1101 -33.9043 -16.9439 0.866972 9.99962 -88.8983 6.84965 2.20293 2.08043 -4.82095 2.29235 1.98147 -27.3505 1.47607 2.64607 -7.33789 1.47608 2.64608 100.878 -6.28491 -86.51 -28.834 0.0426466 -41.1667 0.379818 -15.4043 -23.4628 -56.5784 -6.12468 6.36011 -88.1435 -58.3044 82.92 -21.7607 -5.84366 -68.1594 9.67081 79.5003 -19.7336 52.4608 3.35142 2.25984 26.4455 -8.50713 30.219 6.15858 -21.4966 -32.3589 
-2.09439 37.1799 54.4505 16.9136 -26.4948 12.7596 -169.201 41.1897 101.648 -83.9374 16.1035 2.5404 58.2555 -4.97416 -12.2092 61.9318 19.9456 21.3563 160.146 16.0632 84.167 -58.4436 -10.9527 6.45328 87.1513 -18.8619 23.8282 47.2911 -33.226 -18.145 0.187095 9.35214 -88.6138 8.15118 0.981894 2.6801 -3.52202 1.09887 2.63431 -26.0355 0.131365 2.85116 -6.0229 0.131378 2.85116 102.453 -9.77395 -81.2826 -26.4636 -7.21324 -43.0799 -11.912 -11.8897 -45.5541 -60.2688 -7.16982 7.33838 -88.177 -58.4177 82.8927 -14.835 -12.0906 -54.7256 19.5044 78.1485 -31.7713 40.7241 2.97774 3.55531 22.5231 -9.71395 19.0424 12.6669 -18.5505 -23.8022 
-3.43696 32.4124 60.2565 17.7314 -23.4388 12.0224 -165.195 38.0414 103.112 -77.7541 16.1233 0.967361 55.9463 -6.87912 -11.7689 57.7366 18.3797 25.5196 162.665 10.626 84.8992 -49.8789 -9.78441 6.2892 84.9962 -14.7135 25.402 46.0216 -30.693 -17.6261 -0.00747117 8.68858 -88.2976 9.47327 0.751458 3.31818 -2.2016 0.896691 3.28195 -24.7028 -0.27991 3.39059 -4.69011 -0.279911 3.39059 102.862 -10.7804 -80.1417 -23.9403 -21.2882 -40.0436 -23.5747 -4.62823 -61.0685 -65.3324 -8.67543 8.73237 -87.1303 -57.8507 84.2413 -11.0165 -14.6038 -44.5876 7.53586 74.6023 -21.7189 55.5625 2.27624 -0.141898 23.996 -10.0339 13.4319 10.9026 -16.485 -20.909 
-4.17386 27.4132 65.1234 19.2856 -20.4311 11.4948 -163.825 34.7524 104.291 -71.9853 15.0103 -0.182405 54.1751 -8.82173 -14.2409 52.8297 14.8037 24.772 164.424 5.82669 85.8321 -42.8465 -8.21834 5.84918 82.7074 -12.3456 24.7403 44.735 -27.775 -16.4011 -0.108099 8.06274 -88.1054 10.7228 0.657844 3.70605 -0.953199 0.820205 3.67355 -23.4463 -0.485562 3.7325 -3.43359 -0.485559 3.73247 102.998 -12.3871 -79.7954 -16.8841 -34.5493 -31.6474 -34.7334 6.0374 -73.5538 -67.3266 -10.0868 10.1281 -85.6006 -56.2639 86.1635 -7.9016 -14.7465 -35.4626 5.6406 75.2916 -20.9216 49.1222 1.2352 -1.65875 24.2634 -10.6709 12.4858 9.59086 -16.4927 -20.4588 
-4.41733 22.1398 69.093 19.7924 -18.0805 10.0993 -162.526 30.8609 104.708 -66.1898 14.9449 -1.31118 51.1939 -11.2982 -14.4883 50.9413 13.5488 25.0446 165.957 2.88345 85.6677 -38.7778 -7.676 4.86797 79.2143 -6.43446 26.6887 40.4123 -21.3253 -19.3244 -0.1682 7.55955 -87.9743 11.7267 0.616296 3.97341 0.0499785 0.790447 3.9425 -22.437 -0.60536 3.97508 -2.42432 -0.605365 3.97508 103.498 -13.6372 -78.4718 -3.86905 -43.927 -18.9362 -50.0143 16.1237 -81.6864 -65.2727 -11.562 13.047 -84.0909 -52.9228 87.9375 -6.49151 -13.002 -25.8665 9.45704 76.6686 -26.2614 48.5158 1.20109 -1.65563 29.5841 -11.0637 11.9551 5.14266 -16.3551 -20.0404 
-3.97766 17.8856 71.6217 24.2183 -14.4812 9.66208 -164.209 29.3549 103.974 -61.7097 15.5003 -1.46005 48.7063 -13.2775 -16.42 48.8042 11.8801 23.8843 165.169 1.69919 84.6169 -35.99 -6.73148 6.16921 74.5866 -0.488479 27.0672 38.4797 -17.2587 -17.9983 -0.76044 7.15705 -87.9797 12.5521 -0.548228 4.09915 0.874795 -0.367446 4.11927 -21.6162 -1.75402 3.7458 -1.60362 -1.75402 3.74578 103.803 -13.4325 -77.6021 11.6785 -52.9206 -1.65494 -64.6944 29.1943 -83.604 -60.4913 -11.7759 15.1692 -83.668 -51.2786 88.3867 -4.23868 -11.948 -16.4854 12.2057 76.6232 -30.4301 49.3151 1.01755 -1.9744 37.8921 -10.154 12.7456 -1.1367 -15.5786 -20.0265 
-4.01922 13.964 73.5171 23.3376 -10.3376 7.85117 -162.416 29.6175 104.151 -58.1945 15.3347 -2.91426 46.8191 -14.9648 -17.9999 47.9781 10.3147 17.6466 165.495 3.30071 83.7482 -34.2724 -7.50165 6.40083 70.5314 4.34298 28.5078 35.4134 -10.9308 -14.7187 -1.00732 6.7251 -88.052 13.4258 -1.05609 4.03407 1.74897 -0.877659 4.07654 -20.7491 -2.21896 3.53125 -0.736421 -2.21896 3.53124 103.788 -12.0986 -77.5288 35.3359 -59.968 22.4869 -84.7323 40.0569 -74.1216 -55.195 -9.80076 13.657 -82.843 -49.281 89.436 -3.57462 -11.0235 -8.24186 20.7835 78.1676 -39.7405 46.9111 1.74842 -0.246518 44.8993 -9.47378 14.7524 -5.35492 -15.9509 -21.2213 
-4.42218 9.97054 75.1228 19.0243 -6.53474 6.85972 -157.768 30.0117 106.398 -54.842 9.74149 -5.2328 44.4974 -16.8929 -22.7358 50.3255 11.0209 13.7927 166.903 3.75338 85.1507 -32.5672 -5.29933 5.27915 69.9241 4.36824 27.7084 37.4767 -13.7205 -11.2367 -0.822325 6.1648 -88.3888 14.5447 -0.833185 3.36013 2.86952 -0.68458 3.39349 -19.6393 -1.80411 2.95499 0.373342 -1.80411 2.95499 103.79 -11.0762 -77.4235 63.8179 -61.6525 50.5756 -105.89 46.2603 -59.7636 -54.3019 -8.72648 12.0465 -81.5051 -50.1565 91.5339 -1.15272 -9.90473 -3.11147 18.3631 81.859 -37.7609 52.0808 1.18609 -1.9033 45.782 -8.53437 14.0713 -5.30945 -14.8936 -19.0786 
-4.56582 8.87605 76.4612 15.468 -5.92446 6.53978 -157.659 26.0098 108.057 -48.3931 7.65535 -5.82003 43.469 -17.7221 -23.2088 48.7375 10.0922 13.4518 166.066 3.99305 84.5393 -33.6164 -0.496134 4.93321 72.2995 3.1804 31.4673 38.2597 -14.9442 -11.0611 -0.455477 6.37768 -88.9617 14.1177 -0.393996 2.13697 2.445 -0.299584 2.15221 -20.0788 -1.01791 1.9199 -0.0660817 -1.01792 1.91988 104.397 -13.2164 -75.9265 66.7843 -59.3086 53.6632 -119.849 49.7661 -50.864 -48.1959 -6.3535 9.20155 -82.744 -48.7334 89.5323 -3.64297 -8.64196 0.409502 7.91406 81.9936 -28.24 59.0014 1.17581 -2.23624 47.0591 -7.08874 13.8697 -1.86814 -14.122 -16.3483 
-4.20862 9.47087 77.5132 13.4352 -3.8955 5.38069 -160.032 23.2778 105.893 -40.0544 8.47605 -6.36863 42.9883 -18.3097 -21.9469 51.2626 11.4895 13.3838 166.55 6.10713 83.4842 -30.1298 -4.54981 4.62507 69.9869 3.94077 28.7027 40.4532 -19.9325 -15.4346 -0.372158 6.32112 -89.5615 14.2287 -0.522406 0.949961 2.55747 -0.48009 0.972044 -19.9761 -0.78374 0.74907 0.0365223 -0.78374 0.749078 104.343 -14.2795 -76.1941 50.8252 -60.2505 40.5642 -127.207 49.8008 -45.8824 -48.7403 -6.49588 9.2334 -80.1488 -45.2179 93.3769 -5.86245 -7.50887 5.62851 46.0113 75.6999 -65.806 52.014 1.60926 -1.12176 50.5502 -2.57198 19.9104 -6.06 -13.279 -19.6396 
-3.78573 9.1317 77.7061 12.9041 -2.63901 3.95009 -160.263 22.0979 104.091 -37.7409 6.56385 -6.98845 43.0687 -18.2121 -23.3741 53.2547 13.1153 16.0931 166.848 8.37683 82.1455 -31.708 -5.2825 3.93748 70.1075 4.22662 29.6289 40.3793 -20.6098 -17.6346 0.128889 6.10894 -89.7774 14.6606 0.365211 0.392852 2.98981 0.382142 0.376384 -19.5456 0.230252 0.48444 0.467005 0.230249 0.48444 105.294 -15.8211 -73.8703 12.8067 -34.7308 8.89147 -105.517 62.3995 -72.0236 -38.667 -6.06763 12.5999 -78.4952 -39.8628 95.8833 -4.36381 -16.4569 9.04756 23.1785 47.7321 -46.2106 50.8331 0.795503 -2.59911 46.4585 -0.620029 29.2825 -3.84711 -16.1467 -26.2603 
-3.44689 9.21428 77.3118 13.3283 -3.99712 4.0815 -159.341 21.9456 104.236 -40.77 6.55864 -6.88127 45.3506 -16.5625 -25.6226 56.2849 14.9604 16.1948 167.268 7.85803 82.1716 -31.7802 -7.84582 3.60956 68.5582 4.15341 25.6097 38.786 -20.4713 -25.2571 0.705082 6.02514 -90.1458 14.8268 1.32311 -0.486052 3.15639 1.30044 -0.543837 -19.3839 1.40801 -0.0658694 0.628684 1.40801 -0.0658732 104.935 -14.132 -74.5748 -8.12403 34.7066 -8.57086 -31.8301 31.0799 -147.004 -31.0832 -8.38887 24.9931 -76.0274 -43.5865 100.014 1.43578 -31.5885 -0.587335 20.3105 21.9585 -55.9446 54.0182 0.521908 -3.16986 37.2639 -2.00301 39.0516 0.700645 -20.8662 -31.7514 
-3.43256 9.32143 76.926 13.8187 -3.9268 3.50339 -158.559 22.9279 103.516 -42.7604 5.0948 -7.3717 45.6225 -16.2981 -26.6543 54.3496 14.5789 19.5426 166.984 7.88647 81.7566 -32.2194 -6.50502 3.61145 69.2595 3.85563 26.0243 41.4125 -23.6897 -20.4281 1.15731 5.84922 -90.1616 15.185 2.20806 -0.659022 3.51569 2.17692 -0.75561 -19.0345 2.30399 0.0354059 0.978125 2.30399 0.0353982 104.32 -12.3015 -76.0249 -17.0514 57.6315 -6.39247 -20.2478 5.22763 -155.348 -27.8387 -7.04231 23.3247 -75.8548 -41.198 100.389 -2.31341 -40.5487 -21.1084 23.7964 11.056 -71.1573 34.9429 -0.664691 -6.07017 36.9113 -1.62275 46.9381 -1.91904 -23.62 -37.185 
-3.49029 9.36313 76.7072 14.0458 -4.78713 3.52603 -158.277 22.517 103.719 -43.8613 5.22704 -7.19286 46.3169 -15.8264 -26.537 55.2676 14.5247 16.9467 166.103 7.21004 81.122 -32.5593 -5.52562 3.97961 70.1312 3.53834 27.3883 40.4798 -22.2179 -21.168 0.845165 5.81827 -90.3587 15.244 1.49214 -0.948382 3.57354 1.44895 -1.01315 -18.9677 1.70815 -0.455995 1.04495 1.70815 -0.456 103.148 -12.5683 -79.3617 -17.3432 44.4846 -8.85586 -26.8342 22.0153 -150.547 -21.2295 -5.82337 25.9326 -76.4953 -34.1403 99.4697 -11.896 -46.9228 -39.777 20.6313 4.32827 -82.6804 17.3767 -1.50923 -12.2664 41.2779 1.73087 45.6963 -5.36747 -20.7439 -35.2831 
-3.55076 9.14239 76.8567 12.6852 -4.60744 2.96855 -158.597 21.1709 103.721 -41.5036 6.29042 -7.4704 46.473 -15.8239 -25.252 56.8595 15.3696 16.5367 167.057 7.44152 81.0312 -32.3764 -6.18178 2.84219 70.1575 3.42704 27.7826 41.0045 -22.6198 -19.7581 0.932349 5.64227 -90.4363 15.5983 1.62312 -1.1333 3.9278 1.57167 -1.20366 -18.6141 1.88866 -0.592995 1.39856 1.88866 -0.592991 103.297 -14.225 -79.0657 -16.0997 43.3417 -14.2119 -26.8738 22.2995 -149.38 -18.7578 -4.96721 25.1591 -78.6428 -29.6771 95.3697 -20.9765 -45.5028 -60.7401 21.0169 3.28006 -85.8548 11.1784 -1.48794 -16.115 46.727 5.73161 48.0044 -11.8379 -18.9634 -36.773 
